<svg viewBox="-239 241 32 32" xml:space="preserve" xmlns="http://www.w3.org/2000/svg" enable-background="new -239 241 32 32"><path d="M-220.1 257.5v6.3c0 1-.2 1.7-.7 2.2-.5.5-1 .7-1.8.7-.7 0-1.3-.2-1.7-.7s-.7-1.2-.7-2.2v-7.6c0-1.2 0-2.1-.1-2.8-.1-.7-.3-1.2-.7-1.6-.4-.4-.9-.6-1.7-.6-1.6 0-2.6.5-3.1 1.6s-.7 2.6-.7 4.6v6.4c0 1-.2 1.7-.7 2.2s-1 .8-1.8.8c-.7 0-1.3-.3-1.8-.8s-.7-1.2-.7-2.2v-13.6c0-.9.2-1.6.6-2 .4-.5 1-.7 1.6-.7.6 0 1.2.2 1.6.7.4.4.7 1 .7 1.8v.5c.8-1 1.7-1.7 2.6-2.2.9-.5 2-.7 3.1-.7 1.2 0 2.2.2 3.1.7.9.5 1.6 1.2 2.1 2.2.8-1 1.7-1.7 2.6-2.2s1.9-.7 3-.7c1.3 0 2.4.3 3.4.8.9.5 1.6 1.2 2.1 2.2.4.9.6 2.2.6 4v9.3c0 1-.2 1.7-.7 2.2s-1 .7-1.8.7c-.7 0-1.3-.3-1.8-.8s-.7-1.2-.7-2.2v-8c0-1 0-1.8-.1-2.5-.1-.6-.3-1.1-.7-1.5-.4-.4-1-.6-1.7-.6-.6 0-1.2.2-1.8.6s-1 .9-1.3 1.5c-.1.8-.3 2.2-.3 4.2z" fill="#000000" class="fill-20baf7 fill-000000"></path><path d="M-209 262.4v1.4c0 1-.2 1.7-.7 2.2s-1 .7-1.8.7c-.7 0-1.3-.3-1.8-.8s-.7-1.2-.7-2.2v-1.4c0 1 .2 1.7.7 2.2s1 .8 1.8.8c.7 0 1.3-.2 1.8-.7s.7-1.2.7-2.2zm-11.1 0v1.4c0 1-.2 1.7-.7 2.2-.5.5-1 .7-1.8.7-.7 0-1.3-.2-1.7-.7s-.7-1.2-.7-2.2v-1.4c0 1 .2 1.7.7 2.2s1 .7 1.7.7 1.3-.2 1.8-.7c.5-.5.7-1.2.7-2.2zm-11.2 0v1.4c0 1-.2 1.7-.7 2.2s-1 .8-1.8.8c-.7 0-1.3-.3-1.8-.8s-.7-1.2-.7-2.2v-1.4c0 1 .2 1.7.7 2.2s1 .8 1.8.8c.7 0 1.3-.3 1.8-.8s.7-1.2.7-2.2z" fill="#000000" class="fill-2f9dc4 fill-808080"></path><path d="M-220.1 257.5v6.3c0 1-.2 1.7-.7 2.2-.5.5-1 .7-1.8.7-.7 0-1.3-.2-1.7-.7s-.7-1.2-.7-2.2v-7.6c0-1.2 0-2.1-.1-2.8-.1-.7-.3-1.2-.7-1.6-.4-.4-.9-.6-1.7-.6-1.6 0-2.6.5-3.1 1.6s-.7 2.6-.7 4.6v6.4c0 1-.2 1.7-.7 2.2s-1 .8-1.8.8c-.7 0-1.3-.3-1.8-.8s-.7-1.2-.7-2.2v-13.6c0-.9.2-1.6.6-2 .4-.5 1-.7 1.6-.7.6 0 1.2.2 1.6.7.4.4.7 1 .7 1.8v.5c.8-1 1.7-1.7 2.6-2.2.9-.5 2-.7 3.1-.7 1.2 0 2.2.2 3.1.7.9.5 1.6 1.2 2.1 2.2.8-1 1.7-1.7 2.6-2.2s1.9-.7 3-.7c1.3 0 2.4.3 3.4.8.9.5 1.6 1.2 2.1 2.2.4.9.6 2.2.6 4v9.3c0 1-.2 1.7-.7 2.2s-1 .7-1.8.7c-.7 0-1.3-.3-1.8-.8s-.7-1.2-.7-2.2v-8c0-1 0-1.8-.1-2.5-.1-.6-.3-1.1-.7-1.5-.4-.4-1-.6-1.7-.6-.6 0-1.2.2-1.8.6s-1 .9-1.3 1.5c-.1.8-.3 2.2-.3 4.2z" fill="none" stroke="#020303" stroke-linejoin="round" class="stroke-0a2933 stroke-020303"></path><path d="M-234.3 251.5v7.2" fill="none" stroke="#000000" stroke-linecap="round" stroke-linejoin="round" stroke-dasharray="1,2,6,2,3" class="stroke-ffffff"></path></svg>